# xmcd
#
# Track frame offsets:
#	150
#	14835
#	35117
#	51675
#	64690
#	89567
#	112690
#	129425
#	150375
#	183595
#	207070
#	233455
#	257082
#	280727
#
# Disc length: 4065 seconds
#
# Revision: 1
# Processed by: cddbd v1.5.1PL0 Copyright (c) Steve Scherf et al.
# Submitted via: CDex 1.50Beta5
#
DISCID=c10fdf0e
DTITLE=VENUS PETER - BEST OF VENUS PETER,THE
DYEAR=1996
DGENRE=Rock
TTITLE0=Every Planets Son
TTITLE1=Painted Ocean
TTITLE2=New World
TTITLE3=Yellow Shack
TTITLE4=Obsession
TTITLE5=Roller Coaster
TTITLE6=Catch me,I’m falling down
TTITLE7=X’mas with 3-D Cartoon
TTITLE8=Feels like Fire
TTITLE9=Sunset bell
TTITLE10=Star parade
TTITLE11=Mighty Mystic Eyes
TTITLE12=Trip Master Monkey,The
TTITLE13=Fall
EXTD=
EXTT0=
EXTT1=
EXTT2=
EXTT3=
EXTT4=
EXTT5=
EXTT6=
EXTT7=
EXTT8=
EXTT9=
EXTT10=
EXTT11=
EXTT12=
EXTT13=
PLAYORDER=
